# xmcd
#
# Track frame offsets:
# 150
# 14261
# 34855
# 47261
# 64130
# 76464
# 92873
# 112072
# 129521
# 145052
# 162387
# 180422
#
# Disc length: 2547 seconds
#
#
# Revision: 0
# Processed by: cddbd v1.5.1PL0 Copyright (c) Steve Scherf et al.
# Submitted via: FreeRIP 2.942 
#
DISCID=9a09f10c
DTITLE=Joe Diffie - Greatest Hits - Joe Diffie 
DYEAR=1998
DGENRE=Country
TTITLE0=Third Rock From The Sun
TTITLE1=John Deere Green
TTITLE2=Texas Sized Heartache
TTITLE3=Ships That Don't Come In
TTITLE4=Pickup Man
TTITLE5=So Help Me Girl
TTITLE6=Poor Me
TTITLE7=Honky Tonk Attitude
TTITLE8=Home
TTITLE9=Prop Me Up Beside The Jukebox (If I Die )
TTITLE10=Bigger Than The Beatles
TTITLE11=Hurt Me All The Time
EXTD=
EXTT0=
EXTT1=
EXTT2=
EXTT3=
EXTT4=
EXTT5=
EXTT6=
EXTT7=
EXTT8=
EXTT9=
EXTT10=
EXTT11=
PLAYORDER=
